# Blender 3.5.0
# www.blender.org
mtllib fire.mtl
o Icosphere
v 0.043416 -0.018670 -0.037449
v 0.155131 0.104706 -0.023527
v 0.076669 0.047371 0.112313
v -0.080915 0.011936 0.069795
v -0.099844 0.047371 -0.092324
v 0.046041 0.104707 -0.149998
v 0.107615 0.213557 0.083852
v -0.043139 0.153040 0.147461
v -0.152574 0.153191 0.021289
v -0.070842 0.214368 -0.119090
v 0.078455 0.309527 -0.074663
v -0.023866 0.318557 0.017409
v 0.070584 -0.005861 0.044003
v 0.116702 0.027840 -0.035841
v 0.136249 0.066658 0.052187
v 0.118246 0.100359 -0.101995
v 0.052581 0.027840 -0.110178
v -0.022042 -0.026689 0.019012
v -0.002496 0.012129 0.107040
v -0.033167 -0.005861 -0.076278
v -0.106247 0.012129 -0.013242
v -0.031624 0.066658 -0.142433
v 0.140694 0.185969 -0.057456
v 0.076382 0.186053 -0.131629
v 0.103851 0.129478 0.120180
v 0.150984 0.163778 0.039120
v -0.074623 0.074939 0.129191
v 0.018003 0.095768 0.154183
v -0.149871 0.095768 -0.040438
v -0.138745 0.074939 0.054853
v -0.017125 0.163881 -0.155299
v -0.103675 0.129488 -0.120367
v 0.111099 0.284883 0.003711
v 0.038608 0.191083 0.135787
v -0.114645 0.156753 0.098960
v -0.130721 0.191700 -0.057567
v 0.004460 0.285964 -0.114013
v 0.047184 0.294191 0.060331
v -0.028399 0.457733 0.024496
v -0.037786 0.225501 0.097092
v -0.103309 0.226047 0.023989
v -0.061350 0.295761 -0.055642
v 0.321570 0.052434 -0.063700
v -0.321570 0.052434 -0.063700
v 0.321569 0.007391 -0.045043
v -0.321570 0.007392 -0.045042
v 0.321570 -0.011266 0.000000
v -0.321570 -0.011266 0.000000
v 0.321570 0.007391 0.045042
v -0.321570 0.007392 0.045043
v 0.321570 0.052434 0.063700
v -0.321570 0.052434 0.063700
v 0.321570 0.097476 0.045042
v -0.321569 0.097477 0.045042
v 0.321570 0.116134 -0.000000
v -0.321570 0.116134 -0.000000
v 0.321570 0.097476 -0.045043
v -0.321570 0.097477 -0.045042
v 0.215950 0.052434 0.246638
v -0.105619 0.052434 -0.310337
v 0.199793 0.007392 0.255966
v -0.121777 0.007392 -0.301009
v 0.160785 -0.011266 0.278487
v -0.160785 -0.011266 -0.278487
v 0.121777 0.007392 0.301009
v -0.199793 0.007392 -0.255966
v 0.105619 0.052434 0.310337
v -0.215950 0.052434 -0.246638
v 0.121777 0.097476 0.301009
v -0.199793 0.097477 -0.255966
v 0.160785 0.116134 0.278487
v -0.160785 0.116134 -0.278487
v 0.199793 0.097476 0.255966
v -0.121777 0.097476 -0.301009
v -0.105619 0.052434 0.310337
v 0.215950 0.052434 -0.246638
v -0.121777 0.007392 0.301009
v 0.199793 0.007392 -0.255966
v -0.160785 -0.011266 0.278487
v 0.160785 -0.011266 -0.278487
v -0.199793 0.007392 0.255966
v 0.121777 0.007392 -0.301009
v -0.215950 0.052434 0.246638
v 0.105619 0.052434 -0.310337
v -0.199793 0.097476 0.255966
v 0.121777 0.097476 -0.301009
v -0.160785 0.116134 0.278487
v 0.160785 0.116134 -0.278487
v -0.121777 0.097476 0.301009
v 0.199793 0.097476 -0.255966
vn 0.5360 -0.8430 -0.0462
vn 0.8504 -0.3644 -0.3796
vn 0.1958 -0.9767 0.0883
vn -0.0586 -0.9767 -0.2066
vn 0.1244 -0.8430 -0.5234
vn 0.9052 -0.0165 -0.4246
vn 0.7240 -0.2992 0.6215
vn -0.3322 -0.6292 0.7026
vn -0.8045 -0.5155 -0.2949
vn -0.0348 -0.1260 -0.9914
vn 0.9868 0.1454 -0.0717
vn 0.4345 -0.2273 0.8715
vn -0.6662 -0.4752 0.5747
vn -0.7984 -0.2276 -0.5575
vn 0.2118 0.1394 -0.9673
vn 0.5792 0.5963 0.5558
vn -0.1509 0.5717 0.8064
vn -0.7798 0.5141 0.3572
vn -0.7098 0.4827 -0.5130
vn 0.1932 0.6380 -0.7454
vn -0.8817 -0.0526 0.4688
vn -0.5510 0.4574 -0.6980
vn -0.4967 0.5689 -0.6555
vn -0.7403 0.6484 0.1775
vn -0.8316 0.5535 0.0464
vn -0.8300 0.5559 0.0448
vn -0.8285 0.5583 0.0434
vn -0.8284 0.5585 0.0432
vn -0.6123 0.5651 0.5530
vn -0.5658 0.6464 0.5119
vn -0.4569 0.5302 0.7142
vn -0.2143 0.6536 0.7259
vn -0.1353 0.5924 0.7942
vn 0.3993 0.5196 0.7554
vn -0.5312 -0.0603 0.8451
vn 0.6322 0.4330 0.6425
vn 0.7655 0.6322 -0.1200
vn 0.3322 0.3905 -0.8586
vn 0.1701 0.2886 -0.9422
vn -0.2735 0.3512 -0.8955
vn -0.7368 0.2942 -0.6087
vn -0.8784 0.0916 -0.4690
vn -0.9686 0.1593 -0.1906
vn -0.8987 0.0288 0.4376
vn -0.7510 -0.1280 0.6478
vn -0.5599 0.0320 0.8279
vn 0.0579 0.1771 0.9825
vn 0.3283 0.1101 0.9381
vn 0.4989 0.3248 0.8035
vn 0.8389 0.3879 0.3817
vn 0.9520 0.3043 -0.0315
vn 0.8804 0.4104 -0.2377
vn -0.4286 0.1791 -0.8856
vn -0.3487 -0.0717 -0.9345
vn -0.5084 -0.2994 -0.8074
vn -0.9868 -0.1379 0.0851
vn -0.8870 -0.4618 0.0026
vn -0.7438 -0.6292 0.2254
vn -0.2303 -0.1327 0.9640
vn -0.1328 -0.4618 0.8770
vn 0.1736 -0.5155 0.8391
vn 0.8064 0.2037 0.5551
vn 0.8747 -0.0682 0.4798
vn 0.9756 -0.1236 0.1812
vn 0.7259 0.2780 -0.6291
vn 0.7481 0.1412 -0.6484
vn 0.5528 -0.0181 -0.8331
vn 0.1328 -0.4470 -0.8846
vn -0.0274 -0.6734 -0.7388
vn -0.3354 -0.6310 -0.6995
vn -0.5184 -0.7647 -0.3828
vn -0.3627 -0.9184 -0.1584
vn -0.4576 -0.8784 0.1376
vn -0.2033 -0.8784 0.4325
vn 0.1034 -0.9184 0.3820
vn 0.3025 -0.7647 0.5690
vn 0.5003 -0.3643 -0.7855
vn 0.6459 -0.5220 -0.5571
vn 0.4918 -0.7603 -0.4242
vn 0.6427 -0.6310 0.4345
vn 0.7268 -0.6734 0.1356
vn 0.8945 -0.4470 -0.0015
vn -0.0000 -0.7071 -0.7071
vn -0.0000 -0.0000 -1.0000
vn -0.0000 -1.0000 -0.0000
vn -0.0000 -0.7071 0.7071
vn -0.0000 -0.0000 1.0000
vn -0.0000 0.7071 0.7071
vn -0.0000 1.0000 -0.0000
vn -1.0000 -0.0000 -0.0000
vn -0.0000 0.7071 -0.7071
vn 1.0000 -0.0000 -0.0000
vn 0.6124 -0.7071 -0.3536
vn 0.8660 -0.0000 -0.5000
vn -0.6124 -0.7071 0.3536
vn -0.8660 -0.0000 0.5000
vn -0.6124 0.7071 0.3536
vn -0.5000 -0.0000 -0.8660
vn 0.6124 0.7071 -0.3536
vn 0.5000 -0.0000 0.8660
vn 0.8660 -0.0000 0.5000
vn 0.6124 -0.7071 0.3536
vn -0.6124 -0.7071 -0.3536
vn -0.8660 -0.0000 -0.5000
vn -0.6124 0.7071 -0.3536
vn 0.5000 -0.0000 -0.8660
vn 0.6124 0.7071 0.3536
vn -0.5000 -0.0000 0.8660
vt 0.532167 0.538289
vt 0.068196 0.570651
vt 0.154376 0.001274
vt 0.130947 0.457698
vt 0.026295 0.023346
vt 0.645818 0.605310
vt 0.270972 0.000000
vt 0.532166 0.670231
vt 0.260324 0.530894
vt 0.373075 0.465840
vt 0.000000 0.457697
vt 0.124103 0.114431
vt 0.001697 0.146572
vt 0.374410 0.080298
vt 0.258226 0.124015
vt 0.534361 0.770848
vt 0.264459 0.396064
vt 0.036196 0.645741
vt 0.072477 0.314374
vt 0.147193 0.219642
vt 0.336246 0.235757
vt 0.594532 0.564775
vt 0.134411 0.570846
vt 0.580362 0.505188
vt 0.102939 0.520415
vt 0.090948 0.000000
vt 0.647165 0.544581
vt 0.171295 0.504454
vt 0.062855 0.454023
vt 0.375374 0.532007
vt 0.025971 0.520415
vt 0.527730 0.602935
vt 0.594532 0.642328
vt 0.009873 0.570846
vt 0.309102 0.570245
vt 0.472274 0.566931
vt 0.206916 0.024595
vt 0.233597 0.573910
vt 0.472274 0.644484
vt 0.322277 0.501639
vt 0.200106 0.052858
vt 0.105640 0.394643
vt 0.049900 0.570846
vt 0.375374 0.405291
vt 0.028702 0.394655
vt 0.068233 0.068531
vt 0.173092 0.427247
vt 0.144831 0.055296
vt 0.331437 0.030221
vt 0.580362 0.708226
vt 0.000000 0.086845
vt 0.379139 0.030552
vt 0.647165 0.670066
vt 0.200106 0.507569
vt 0.200106 0.097728
vt 0.263054 0.055880
vt 0.322079 0.423842
vt 0.254994 0.462867
vt 0.000000 0.691266
vt 0.197311 0.142541
vt 0.137456 0.340292
vt 0.058385 0.137536
vt 0.322971 0.102485
vt 0.204823 0.429601
vt 0.220363 0.171568
vt 0.472010 0.650802
vt 0.534361 0.708226
vt 0.100242 0.621633
vt 0.304105 0.337301
vt 0.377891 0.199812
vt 0.144674 0.185584
vt 0.472010 0.510147
vt 0.379139 0.337301
vt 0.200106 0.314374
vt 0.100242 0.774307
vt 0.361422 0.146885
vt 0.060667 0.181176
vt 0.293674 0.172746
vt 0.236522 0.345812
vt 0.417318 0.610199
vt 0.472274 0.739137
vt 0.269395 0.241776
vt 0.722303 0.954460
vt 0.363541 0.739203
vt 0.377031 0.603730
vt 0.722302 0.505756
vt 0.684345 0.951098
vt 0.379139 0.000906
vt 0.363541 0.701034
vt 0.379140 0.510003
vt 0.684345 0.502393
vt 0.377031 0.642049
vt 0.407635 0.000000
vt 0.341755 0.671548
vt 0.407635 0.509098
vt 0.351296 0.668017
vt 0.446212 0.000060
vt 0.310947 0.668017
vt 0.446213 0.509158
vt 0.314899 0.666421
vt 0.472274 0.001049
vt 0.379140 0.514153
vt 0.289162 0.692510
vt 0.379139 0.882320
vt 0.472274 0.510147
vt 0.289163 0.638197
vt 0.894466 0.000000
vt 0.417318 0.510147
vt 0.289164 0.730679
vt 0.417318 0.878314
vt 0.894467 0.509185
vt 0.289162 0.599877
vt 0.922837 0.000768
vt 0.310948 0.760165
vt 0.922838 0.509954
vt 0.314898 0.573910
vt 0.754164 0.944131
vt 0.961423 0.000723
vt 0.341757 0.763696
vt 0.351294 0.575506
vt 0.961423 0.509909
vt 0.754164 0.495426
vt 0.781887 0.489994
vt 0.289162 0.600631
vt 0.165135 0.570846
vt 0.781887 0.999133
vt 0.820497 0.490013
vt 0.684383 0.000000
vt 0.263080 0.573910
vt 0.684383 0.489341
vt 0.820497 0.999152
vt 0.192013 0.597876
vt 0.716188 0.006086
vt 0.226191 0.574655
vt 0.716188 0.495426
vt 0.192013 0.636444
vt 0.472274 0.002457
vt 0.754164 0.004139
vt 0.200107 0.602429
vt 0.754164 0.493480
vt 0.472274 0.505188
vt 0.165133 0.663956
vt 0.507759 0.000000
vt 0.200106 0.640962
vt 0.507758 0.502731
vt 0.127121 0.664296
vt 0.824653 0.006210
vt 0.543621 0.002310
vt 0.226190 0.667682
vt 0.543621 0.505041
vt 0.824653 0.494568
vt 0.100242 0.637266
vt 0.856506 0.000000
vt 0.263079 0.666938
vt 0.100243 0.598699
vt 0.856505 0.488358
vt 0.894466 0.002016
vt 0.754164 0.490860
vt 0.289162 0.639164
vt 0.754164 1.000000
vt 0.127123 0.571187
vt 0.894466 0.490375
vt 0.581370 0.005490
vt 0.274258 0.728009
vt 0.177937 0.688578
vt 0.581370 0.497084
vt 0.684383 0.486795
vt 0.613813 0.000000
vt 0.274258 0.690435
vt 0.613813 0.491595
vt 0.684383 0.002920
vt 0.177937 0.726610
vt 0.646914 0.483874
vt 0.252539 0.667683
vt 0.646914 0.000000
vt 0.155181 0.756116
vt 0.613813 0.490092
vt 0.894395 0.940509
vt 0.221824 0.673082
vt 0.894395 0.502249
vt 0.613813 0.006217
vt 0.122998 0.759808
vt 0.856403 0.944032
vt 0.200107 0.703469
vt 0.856403 0.505772
vt 0.100242 0.735527
vt 0.824653 0.932829
vt 0.824652 0.487149
vt 0.200106 0.741042
vt 0.824653 0.003473
vt 0.824653 0.494568
vt 0.100243 0.697494
vt 0.787115 0.489994
vt 0.221825 0.763794
vt 0.787115 0.006318
vt 0.123000 0.667988
vt 0.543621 0.003357
vt 0.754164 0.483676
vt 0.252540 0.758395
vt 0.155182 0.664296
vt 0.754164 0.000000
vt 0.543621 0.494952
s 1
g off
usemtl Material.001
f 1/1/1 14/24/1 13/22/1
f 2/4/2 14/25/2 16/29/2
f 1/1/3 13/22/3 18/32/3
f 1/1/4 18/32/4 20/36/4
f 1/2/5 20/34/5 17/31/5
f 2/4/6 16/29/6 23/42/6
f 3/5/7 15/26/7 25/46/7
f 4/8/8 19/33/8 27/50/8
f 5/9/9 21/38/9 29/54/9
f 6/10/10 22/40/10 31/57/10
f 2/4/11 23/42/11 26/47/11
f 3/5/12 25/46/12 28/51/12
f 4/7/13 27/49/13 30/56/13
f 5/9/14 29/54/14 32/58/14
f 6/10/15 31/57/15 24/44/15
f 7/12/16 33/60/16 38/71/16
f 8/13/17 34/62/17 40/77/17
f 9/15/18 35/63/18 41/78/18
f 10/17/19 36/64/19 42/79/19
f 11/18/20 37/68/20 39/75/20
f 39/73/21 42/82/21 12/21/21
f 39/72/22 37/66/22 42/80/22
f 37/67/23 10/16/23 42/81/23
f 42/82/24 41/78/24 12/21/24
f 42/82/25 36/65/26 41/78/27
f 36/65/26 9/15/28 41/78/27
f 41/78/29 40/76/29 12/21/29
f 41/78/30 35/63/30 40/76/30
f 35/63/31 8/14/31 40/76/31
f 40/77/32 38/71/32 12/20/32
f 40/77/33 34/62/33 38/71/33
f 34/62/34 7/12/34 38/71/34
f 38/70/35 39/73/35 12/21/35
f 38/71/36 33/60/36 39/74/36
f 33/59/37 11/18/37 39/75/37
f 24/43/38 37/68/38 11/18/38
f 24/44/39 31/57/39 37/69/39
f 31/57/40 10/17/40 37/69/40
f 32/58/41 36/64/41 10/17/41
f 32/58/42 29/54/42 36/64/42
f 29/55/43 9/15/43 36/65/43
f 30/56/44 35/63/44 9/15/44
f 30/56/45 27/49/45 35/63/45
f 27/49/46 8/14/46 35/63/46
f 28/51/47 34/62/47 8/13/47
f 28/51/48 25/46/48 34/62/48
f 25/46/49 7/12/49 34/62/49
f 26/48/50 33/60/50 7/12/50
f 26/48/51 23/41/51 33/60/51
f 23/42/52 11/19/52 33/61/52
f 31/57/53 32/58/53 10/17/53
f 31/57/54 22/40/54 32/58/54
f 22/40/55 5/9/55 32/58/55
f 29/55/56 30/56/56 9/15/56
f 29/55/57 21/37/57 30/56/57
f 21/37/58 4/7/58 30/56/58
f 27/49/59 28/52/59 8/14/59
f 27/50/60 19/33/60 28/53/60
f 19/33/61 3/6/61 28/53/61
f 25/46/62 26/48/62 7/12/62
f 25/46/63 15/26/63 26/48/63
f 15/26/64 2/3/64 26/48/64
f 23/42/65 24/45/65 11/19/65
f 23/42/66 16/29/66 24/45/66
f 16/29/67 6/11/67 24/45/67
f 17/30/68 22/40/68 6/10/68
f 17/30/69 20/35/69 22/40/69
f 20/35/70 5/9/70 22/40/70
f 20/35/71 21/38/71 5/9/71
f 20/36/72 18/32/72 21/39/72
f 18/32/73 4/8/73 21/39/73
f 18/32/74 19/33/74 4/8/74
f 18/32/75 13/22/75 19/33/75
f 13/22/76 3/6/76 19/33/76
f 16/29/77 17/31/77 6/11/77
f 16/29/78 14/25/78 17/31/78
f 14/25/79 1/2/79 17/31/79
f 13/22/80 15/27/80 3/6/80
f 13/23/81 14/25/81 15/28/81
f 14/25/82 2/4/82 15/28/82
f 45/87/83 44/86/84 43/83/84
f 45/88/83 48/95/85 46/90/83
f 49/97/86 48/95/85 47/93/85
f 51/101/87 50/99/86 49/97/86
f 51/102/87 54/110/88 52/104/87
f 55/113/89 54/111/88 53/107/88
f 52/106/90 56/116/90 44/85/90
f 55/113/89 58/121/91 56/115/89
f 43/83/84 58/122/91 57/117/91
f 53/109/92 49/98/92 45/89/92
f 61/127/93 60/126/94 59/123/94
f 61/128/93 64/135/85 62/130/93
f 63/133/85 66/140/95 64/135/85
f 67/143/96 66/141/95 65/137/95
f 67/143/96 70/150/97 68/145/96
f 71/153/89 70/151/97 69/147/97
f 68/146/98 72/155/98 60/125/98
f 73/157/99 72/156/89 71/153/89
f 73/158/99 60/126/94 74/160/99
f 69/149/100 65/139/100 61/129/100
f 75/163/101 78/170/102 76/166/101
f 79/173/85 78/171/102 77/167/102
f 81/177/103 80/175/85 79/173/85
f 81/178/103 84/185/104 82/180/103
f 85/187/105 84/185/104 83/183/104
f 85/188/105 88/195/89 86/190/105
f 84/186/106 88/196/106 76/165/106
f 87/193/89 90/201/107 88/195/89
f 75/163/101 90/202/107 89/197/107
f 85/189/108 81/179/108 77/169/108
f 45/87/83 46/91/83 44/86/84
f 45/88/83 47/93/85 48/95/85
f 49/97/86 50/99/86 48/95/85
f 51/101/87 52/105/87 50/99/86
f 51/102/87 53/108/88 54/110/88
f 55/113/89 56/115/89 54/111/88
f 44/85/90 46/92/90 48/96/90
f 48/96/90 50/100/90 52/106/90
f 52/106/90 54/112/90 56/116/90
f 56/116/90 58/120/90 44/85/90
f 44/85/90 48/96/90 52/106/90
f 55/113/89 57/118/91 58/121/91
f 43/83/84 44/86/84 58/122/91
f 45/89/92 43/84/92 57/119/92
f 57/119/92 55/114/92 53/109/92
f 53/109/92 51/103/92 49/98/92
f 49/98/92 47/94/92 45/89/92
f 45/89/92 57/119/92 53/109/92
f 61/127/93 62/131/93 60/126/94
f 61/128/93 63/133/85 64/135/85
f 63/133/85 65/138/95 66/140/95
f 67/143/96 68/145/96 66/141/95
f 67/143/96 69/148/97 70/150/97
f 71/153/89 72/156/89 70/151/97
f 60/125/98 62/132/98 64/136/98
f 64/136/98 66/142/98 68/146/98
f 68/146/98 70/152/98 72/155/98
f 72/155/98 74/161/98 60/125/98
f 60/125/98 64/136/98 68/146/98
f 73/157/99 74/162/99 72/156/89
f 73/158/99 59/123/94 60/126/94
f 61/129/100 59/124/100 73/159/100
f 73/159/100 71/154/100 69/149/100
f 69/149/100 67/144/100 65/139/100
f 65/139/100 63/134/100 61/129/100
f 61/129/100 73/159/100 69/149/100
f 75/163/101 77/168/102 78/170/102
f 79/173/85 80/175/85 78/171/102
f 81/177/103 82/181/103 80/175/85
f 81/178/103 83/183/104 84/185/104
f 85/187/105 86/191/105 84/185/104
f 85/188/105 87/193/89 88/195/89
f 76/165/106 78/172/106 80/176/106
f 80/176/106 82/182/106 84/186/106
f 84/186/106 86/192/106 88/196/106
f 88/196/106 90/200/106 76/165/106
f 76/165/106 80/176/106 84/186/106
f 87/193/89 89/198/107 90/201/107
f 75/163/101 76/166/101 90/202/107
f 77/169/108 75/164/108 89/199/108
f 89/199/108 87/194/108 85/189/108
f 85/189/108 83/184/108 81/179/108
f 81/179/108 79/174/108 77/169/108
f 77/169/108 89/199/108 85/189/108
